<svg width="30" height="30" viewBox="0 0 30 30" fill="none" xmlns="http://www.w3.org/2000/svg">
<g clip-path="url(#clip0_0_76)">
<path d="M15 11.0139C12.8 11.0139 11.015 12.7969 11.015 14.9999C11.015 17.2019 12.802 18.9869 15 18.9869C17.2 18.9869 18.987 17.2019 18.987 14.9999C18.987 12.7969 17.199 11.0139 15 11.0139ZM15 17.6059C13.556 17.6059 12.393 16.4389 12.393 14.9999C12.393 13.5599 13.556 12.3939 15 12.3939C16.43 12.3939 17.607 13.5609 17.607 14.9999C17.607 16.4399 16.444 17.6059 15 17.6059ZM19.385 9.55591C18.872 9.55591 18.465 9.96391 18.465 10.4759C18.465 10.9889 18.872 11.3959 19.385 11.3959C19.898 11.3959 20.305 10.9889 20.305 10.4759C20.305 9.96391 19.897 9.55591 19.385 9.55591Z" fill="white"/>
<path d="M15.002 0.149902C6.79802 0.149902 0.150024 6.7969 0.150024 14.9999C0.150024 23.1999 6.79702 29.8499 15 29.8499C23.2 29.8499 29.85 23.2019 29.85 14.9999C29.85 6.7969 23.2 0.149902 15 0.149902H15.002ZM22.666 18.2649C22.666 20.6879 20.686 22.6649 18.25 22.6649H11.75C9.31203 22.6649 7.33302 20.6869 7.33302 18.2799V11.7339C7.33302 9.3119 9.31102 7.3339 11.75 7.3339H18.25C20.688 7.3339 22.666 9.3119 22.666 11.7339V18.2639V18.2649Z" fill="white"/>
</g>
<defs>
<clipPath id="clip0_0_76">
<rect width="30" height="30" fill="white"/>
</clipPath>
</defs>
</svg>
